<svg id="Layer_1" data-name="Layer 1" xmlns="http://www.w3.org/2000/svg" viewBox="0 0 15 15"><defs><style>.cls-1{fill:#3b86ff;}.cls-2{fill:#fff;}</style></defs><rect class="cls-1" width="15" height="15" rx="1.64"/><rect class="cls-2" x="0.97" y="6.97" width="9.31" height="1.06" rx="0.53" transform="translate(-1.87 13.13) rotate(-90)"/><rect class="cls-2" x="4.74" y="6.97" width="9.31" height="1.06" rx="0.53" transform="translate(1.9 16.9) rotate(-90)"/><circle class="cls-1" cx="5.63" cy="5.6" r="1.19"/><path class="cls-2" d="M5.63,7.05A1.45,1.45,0,1,1,7.07,5.6,1.45,1.45,0,0,1,5.63,7.05Zm0-2.39a.95.95,0,1,0,.94.94A.95.95,0,0,0,5.63,4.66Z"/><circle class="cls-1" cx="9.4" cy="9.47" r="1.17"/><path class="cls-2" d="M9.4,10.89a1.42,1.42,0,1,1,1.42-1.42A1.41,1.41,0,0,1,9.4,10.89Zm0-2.34a.93.93,0,1,0,.92.92A.93.93,0,0,0,9.4,8.55Z"/></svg>