<svg id="Layer_1" data-name="Layer 1" xmlns="http://www.w3.org/2000/svg" viewBox="0 0 29 29"><defs><style>.cls-1{fill:#3b86ff;}.cls-2{fill:#fff;}</style></defs><rect class="cls-1" width="29" height="29" rx="3.18"/><rect class="cls-2" x="1.88" y="13.48" width="17.99" height="2.04" rx="0.53" transform="translate(-3.62 25.38) rotate(-90)"/><rect class="cls-2" x="9.17" y="13.48" width="17.99" height="2.04" rx="0.53" transform="translate(3.66 32.66) rotate(-90)"/><circle class="cls-1" cx="10.88" cy="10.84" r="2.31"/><path class="cls-2" d="M10.88,13.63a2.79,2.79,0,1,1,2.79-2.79A2.8,2.8,0,0,1,10.88,13.63Zm0-4.62a1.83,1.83,0,1,0,1.83,1.83A1.83,1.83,0,0,0,10.88,9Z"/><circle class="cls-1" cx="18.16" cy="18.32" r="2.26"/><path class="cls-2" d="M18.16,21.06a2.75,2.75,0,1,1,2.75-2.74A2.74,2.74,0,0,1,18.16,21.06Zm0-4.53A1.79,1.79,0,1,0,20,18.32,1.79,1.79,0,0,0,18.16,16.53Z"/></svg>